name processed_emg_signals
nRows=6
nColumns=59
 
endheader
time	Unnamed: 0	Force_Fx1	Force_Fy1	Force_Fz1	Moment_Mx1	Moment_My1	Moment_Mz1	Force_Fx2	Force_Fy2	Force_Fz2	Moment_Mx2	Moment_My2	Moment_Mz2	Force_Fx3	Force_Fy3	Force_Fz3	Moment_Mx3	Moment_My3	Moment_Mz3	Force_Fx4	Force_Fy4	Force_Fz4	Moment_Mx4	Moment_My4	Moment_Mz4	Voltage_1	Voltage_2	Voltage_3	Voltage_4	Voltage_5	Voltage_6	Voltage_7	Voltage_8	Voltage_9	Voltage_10	Voltage_11	Voltage_12	Voltage_13	Voltage_14	Voltage_15	Voltage_16	Voltage_1-VM	Voltage_2-VL	Voltage_3-RF	Voltage_4-GRA	Voltage_5-TA	Voltage_6-AL	Voltage_7-ST	Voltage_8-BF	Voltage_9-MG	Voltage_10-LG	Voltage_11-TFL	Voltage_12-Gmax	Voltage_13-Gmed-intra	Voltage_14-PIR-intra	Voltage_15-OI-intra	Voltage_16-QF-intra	Force_Rig
0.6930000000000001	1386.0	-0.0	-0.0	-0.0	-0.0	-0.0	-0.0	0.356842041015625	33.20137023925781	-386.6268005371094	-100817.1328125	19484.306640625	4992.15185546875	-1.056148886680603	-37.96163558959961	-381.4714660644531	109204.8984375	21166.00390625	-6770.9921875	-0.0	-0.0	-0.0	-0.0	-0.0	-0.0	-0.0014877319335937	-0.0041961669921875	-0.0058364868164062	-0.0060272216796875	-0.0043869018554687	-0.0069046020507812	-0.0014114379882812	-0.01251220703125	-0.0001144409179687	-0.005340576171875	-0.0091934204101562	-0.0069046020507812	-0.0075149536132812	-0.0040817260742187	-0.0016403198242187	-0.0126266479492187	0.09918212890625	0.096893310546875	0.090789794921875	0.100250244140625	0.10498046875	0.093536376953125	0.0994873046875	0.09063720703125	0.098419189453125	0.084075927734375	0.10040283203125	0.100555419921875	0.088043212890625	0.10833740234375	0.10284423828125	0.101318359375	6.1089348793029785
0.6935	1387.0	-0.0	-0.0	-0.0	-0.0	-0.0	-0.0	0.1962844133377075	33.27241516113281	-385.9196166992188	-100915.453125	19521.5390625	5024.373046875	-1.0645294189453125	-37.57036590576172	-382.9195861816406	109344.7734375	21055.19921875	-6746.8623046875	-0.0	-0.0	-0.0	-0.0	-0.0	-0.0	-0.0055313110351562	-0.0066757202148437	-0.0139236450195312	-0.0152587890625	-0.0123214721679687	-0.012664794921875	-0.00640869140625	-0.0207138061523437	-0.006103515625	-0.0090789794921875	-0.0193023681640625	-0.0146865844726562	-0.009307861328125	-0.0107955932617187	-0.005340576171875	-0.0261688232421875	0.10101318359375	0.095367431640625	0.091705322265625	0.106201171875	0.0994873046875	0.09521484375	0.097503662109375	0.095672607421875	0.097808837890625	0.0933837890625	0.098114013671875	0.0958251953125	0.0885009765625	0.1104736328125	0.10009765625	0.098724365234375	1.0664793252944946
0.6940000000000001	1388.0	-0.0	-0.0	-0.0	-0.0	-0.0	-0.0	0.3298283517360687	33.860557556152344	-385.9220275878906	-100929.5625	19411.673828125	5001.455078125	-0.7693357467651367	-37.43991088867188	-383.0193481445313	109158.421875	21370.427734375	-6794.57421875	-0.0	-0.0	-0.0	-0.0	-0.0	-0.0	0.0041580200195312	0.0030136108398437	0.0058746337890625	0.0094223022460937	0.0054550170898437	0.00732421875	0.002593994140625	0.0098800659179687	0.0057220458984375	0.0048446655273437	0.0087738037109375	0.0078582763671875	0.004730224609375	0.0077056884765625	0.0018692016601562	0.0147247314453125	0.0970458984375	0.100555419921875	0.10711669921875	0.094757080078125	0.097198486328125	0.095672607421875	0.095977783203125	0.0927734375	0.104827880859375	0.09063720703125	0.097503662109375	0.100555419921875	0.089874267578125	0.1068115234375	0.09857177734375	0.099945068359375	7.369548797607422
0.6945	1389.0	-0.0	-0.0	-0.0	-0.0	-0.0	-0.0	0.2767066359519958	34.21700668334961	-386.3429260253906	-101011.0703125	19673.3515625	4922.98193359375	-1.0473464727401731	-37.385738372802734	-382.9855346679688	109083.015625	21249.69921875	-6687.52392578125	-0.0	-0.0	-0.0	-0.0	-0.0	-0.0	0.0046920776367187	0.0098800659179687	0.0134658813476562	0.0180816650390625	0.0120925903320312	0.0136184692382812	0.0109100341796875	0.020751953125	0.005950927734375	0.0062942504882812	0.02044677734375	0.0158309936523437	0.0103378295898437	0.011138916015625	0.00396728515625	0.0276947021484375	0.09796142578125	0.1025390625	0.09857177734375	0.102996826171875	0.098419189453125	0.09918212890625	0.0970458984375	0.103607177734375	0.095672607421875	0.1019287109375	0.099639892578125	0.09674072265625	0.1007080078125	0.10772705078125	0.09307861328125	0.101318359375	7.05439567565918
0.6950000000000001	1390.0	-0.0	-0.0	-0.0	-0.0	-0.0	-0.0	0.5078191757202148	34.69001007080078	-388.9235534667969	-101685.96875	19477.466796875	4963.89501953125	-1.0018105506896973	-37.08648300170898	-382.3892517089844	108840.609375	21379.580078125	-6729.38330078125	-0.0	-0.0	-0.0	-0.0	-0.0	-0.0	-0.0015640258789062	-0.0049591064453125	-0.0057220458984375	-0.0062179565429687	-0.00579833984375	-0.0058746337890625	-0.0054168701171875	-0.0115966796875	-0.001220703125	-0.0048446655273437	-0.0077056884765625	-0.0076675415039062	-0.0051498413085937	-0.0057220458984375	-0.000762939453125	-0.0144195556640625	0.10009765625	0.098876953125	0.09552001953125	0.10162353515625	0.099029541015625	0.097198486328125	0.102081298828125	0.104217529296875	0.10162353515625	0.07965087890625	0.094451904296875	0.099334716796875	0.098419189453125	0.101318359375	0.09674072265625	0.10498046875	5.478628158569336
0.6955	1391.0	-0.0	-0.0	-0.0	-0.0	-0.0	-0.0	0.5352630615234375	34.96674346923828	-389.7034301757813	-101250.921875	19467.544921875	4987.267578125	-1.276879072189331	-37.12118911743164	-381.69146728515625	108882.3046875	21474.72265625	-6883.6357421875	-0.0	-0.0	-0.0	-0.0	-0.0	-0.0	-0.0085067749023437	-0.0078582763671875	-0.0109100341796875	-0.0148391723632812	-0.0106430053710937	-0.0128936767578125	-0.0067520141601562	-0.0221633911132812	-0.00823974609375	-0.0084686279296875	-0.0205612182617187	-0.0130844116210937	-0.0072479248046875	-0.00885009765625	-0.0044631958007812	-0.0270843505859375	0.091400146484375	0.104217529296875	0.09674072265625	0.106658935546875	0.09246826171875	0.093994140625	0.10101318359375	0.101165771484375	0.092010498046875	0.0537109375	0.095977783203125	0.093994140625	0.0982666015625	0.09918212890625	0.0994873046875	0.104217529296875	3.2725536823272705
